<svg width="18" height="18" viewBox="0 0 18 18" fill="none" xmlns="http://www.w3.org/2000/svg">
<path d="M1.125 2.125V8.15114C1.125 12.4934 4.59816 16.0926 8.94029 16.1248C9.97944 16.1327 11.0099 15.9348 11.9722 15.5426C12.9345 15.1504 13.8097 14.5716 14.5473 13.8395C15.2849 13.1075 15.8703 12.2367 16.2698 11.2774C16.6693 10.3181 16.875 9.28918 16.875 8.25V2.125C16.875 1.89294 16.7828 1.67038 16.6187 1.50628C16.4546 1.34219 16.2321 1.25 16 1.25H2C1.76794 1.25 1.54538 1.34219 1.38128 1.50628C1.21719 1.67038 1.125 1.89294 1.125 2.125Z" stroke="#217BF4" stroke-width="2" stroke-linecap="round" stroke-linejoin="round"/>
</svg>
